<?xml version="1.0" encoding="utf-8"?>
<!-- Generator: Adobe Illustrator 21.1.0, SVG Export Plug-In . SVG Version: 6.00 Build 0)  -->
<svg version="1.1" id="Layer_1" xmlns="http://www.w3.org/2000/svg" xmlns:xlink="http://www.w3.org/1999/xlink" x="0px" y="0px"
	 viewBox="0 0 24 24" style="enable-background:new 0 0 24 24;" xml:space="preserve">
<style type="text/css">
	.st0{fill:#949392;}
</style>
<g id="info">
</g>
<g id="icons">
	<path id="settings" class="st0" d="M22.9,14.4l-1.3-0.7c-1.4-0.8-1.4-2.7,0-3.5l1.3-0.7c1.1-0.6,1.4-1.8,0.7-2.7l-1.1-1.7
		c-0.6-1-1.9-1.3-2.9-0.7l-1.3,0.7c-1.4,0.8-3.2-0.2-3.2-1.7V2c0-1.1-1-2-2.1-2h-2.1C9.8,0,8.8,0.9,8.8,2v1.3C8.8,4.8,7,5.8,5.6,5
		L4.3,4.4C3.2,3.8,1.9,4.2,1.4,5.1L0.3,6.8c-0.5,1-0.2,2.2,0.7,2.8l1.3,0.7c1.4,0.7,1.4,2.7,0,3.4l-1.3,0.7C0,15-0.3,16.2,0.3,17.1
		l1.1,1.7c0.6,1,1.9,1.3,2.9,0.7l1.3-0.6c1.4-0.8,3.2,0.2,3.2,1.7V22c0,1.1,1,2,2.1,2h2.1c1.2,0,2.1-0.9,2.1-2v-1.3
		c0-1.5,1.8-2.5,3.2-1.7l1.3,0.7c1.1,0.6,2.4,0.2,2.9-0.7l1.1-1.7C24.2,16.2,23.9,15,22.9,14.4z M12,16c-2.4,0-4.3-1.8-4.3-4
		S9.6,8,12,8s4.3,1.8,4.3,4S14.4,16,12,16z"/>
</g>
</svg>
