<?xml version="1.0" encoding="utf-8"?>
<!-- Generator: Adobe Illustrator 21.1.0, SVG Export Plug-In . SVG Version: 6.00 Build 0)  -->
<svg version="1.1" id="Layer_1" xmlns="http://www.w3.org/2000/svg" xmlns:xlink="http://www.w3.org/1999/xlink" x="0px" y="0px"
	 viewBox="0 0 64 64" style="enable-background:new 0 0 64 64;" xml:space="preserve">
<style type="text/css">
	.st0{fill:#949392;}
</style>
<g>
	<path class="st0" d="M41.1,32l21.1-21.1c2.5-2.5,2.5-6.6,0-9.1c-2.5-2.5-6.5-2.5-9.1,0L32,22.9L10.9,1.9c-2.5-2.5-6.5-2.5-9.1,0
		s-2.5,6.6,0,9.1L22.9,32L1.9,53.1c-2.5,2.5-2.5,6.6,0,9.1C3.1,63.4,4.8,64,6.4,64s3.3-0.6,4.5-1.9L32,41.1l21.1,21.1
		c1.2,1.2,2.9,1.9,4.5,1.9c1.6,0,3.3-0.6,4.5-1.9c2.5-2.5,2.5-6.6,0-9.1L41.1,32z"/>
</g>
</svg>
