<svg xmlns="http://www.w3.org/2000/svg" width="21.344" height="19.75" viewBox="0 0 21.344 19.75">
  <metadata><?xpacket begin="﻿" id="W5M0MpCehiHzreSzNTczkc9d"?>
<x:xmpmeta xmlns:x="adobe:ns:meta/" x:xmptk="Adobe XMP Core 5.6-c138 79.159824, 2016/09/14-01:09:01        ">
   <rdf:RDF xmlns:rdf="http://www.w3.org/1999/02/22-rdf-syntax-ns#">
      <rdf:Description rdf:about=""/>
   </rdf:RDF>
</x:xmpmeta>
                                                                                                    
                                                                                                    
                                                                                                    
                                                                                                    
                                                                                                    
                                                                                                    
                                                                                                    
                                                                                                    
                                                                                                    
                                                                                                    
                                                                                                    
                                                                                                    
                                                                                                    
                                                                                                    
                                                                                                    
                                                                                                    
                                                                                                    
                                                                                                    
                                                                                                    
                                                                                                    
                           
<?xpacket end="w"?></metadata>
<defs>
    <style>
      .cls-1 {
        fill: #b2b2b2;
        fill-rule: evenodd;
      }
    </style>
  </defs>
  <path id="Forma_1" data-name="Forma 1" class="cls-1" d="M596.742,1442.05a0.3,0.3,0,0,0-.345-0.05l-20.719,9.62a0.314,0.314,0,0,0-.185.28,0.308,0.308,0,0,0,.179.29l5.864,2.88a0.328,0.328,0,0,0,.331-0.03l5.7-4.26-4.475,4.6a0.334,0.334,0,0,0-.09.25l0.446,5.8a0.317,0.317,0,0,0,.219.27,0.175,0.175,0,0,0,.1.02,0.325,0.325,0,0,0,.242-0.11l3.112-3.6,3.847,1.83a0.348,0.348,0,0,0,.265.01,0.325,0.325,0,0,0,.177-0.2l5.426-17.27A0.309,0.309,0,0,0,596.742,1442.05Z" transform="translate(-575.5 -1441.97)"/>
</svg>
