<?xml version="1.0" encoding="utf-8"?>
<!-- Generator: Adobe Illustrator 21.1.0, SVG Export Plug-In . SVG Version: 6.00 Build 0)  -->
<svg version="1.1" id="profile" xmlns="http://www.w3.org/2000/svg" xmlns:xlink="http://www.w3.org/1999/xlink" x="0px" y="0px"
	 viewBox="0 0 32 32" style="enable-background:new 0 0 32 32;" xml:space="preserve">
<style type="text/css">
	.st0{fill:#DADADA;}
	.st1{fill:#848484;}
</style>
<circle id="Ellipse" class="st0" cx="16" cy="16" r="16"/>
<path id="Forma_1" class="st1" d="M16.1,17.3c2.6,0,4.6-2.5,4.6-5.6S20.1,6,16.1,6s-4.7,2.5-4.7,5.7S13.5,17.3,16.1,17.3z M7.3,25.9
	L7.3,25.9z M24.9,26.1L24.9,26.1z M24.9,25.7c-0.1-5.4-0.8-7-6.2-8c-1.5,1.3-3.6,1.3-5.1,0c-5.4,1-6.1,2.5-6.2,7.8
	c0,0.1,0,0.3,0,0.4v0.6c0,0,1.3,2.6,8.8,2.6s8.8-2.6,8.8-2.6v-0.4C24.9,26.1,24.9,26,24.9,25.7L24.9,25.7z"/>
</svg>
