<?xml version="1.0" encoding="utf-8"?>
<!-- Generator: Adobe Illustrator 21.1.0, SVG Export Plug-In . SVG Version: 6.00 Build 0)  -->
<svg version="1.1" id="Layer_1" xmlns="http://www.w3.org/2000/svg" xmlns:xlink="http://www.w3.org/1999/xlink" x="0px" y="0px"
	 viewBox="0 0 11 7" style="enable-background:new 0 0 11 7;" xml:space="preserve">
<style type="text/css">
	.st0{fill:#484848;}
</style>
<path id="Left_Arrow_copy_3" class="st0" d="M10.9,1.1L6,6.8C5.7,7.1,5.3,7.1,5,6.8c0,0,0,0,0,0L0.1,1.1C0,1,0,0.8,0.1,0.6l0.5-0.5
	C0.8,0,1,0,1.2,0.1l4,4.9c0.2,0.1,0.4,0.1,0.5,0l4-4.9c0.1-0.1,0.4-0.1,0.5,0c0,0,0,0,0,0l0.5,0.5C11,0.8,11,1,10.9,1.1L10.9,1.1z"
	/>
</svg>
