<?xml version="1.0" encoding="utf-8"?>
<!-- Generator: Adobe Illustrator 21.1.0, SVG Export Plug-In . SVG Version: 6.00 Build 0)  -->
<svg version="1.1" id="Layer_1" xmlns="http://www.w3.org/2000/svg" xmlns:xlink="http://www.w3.org/1999/xlink" x="0px" y="0px"
	 viewBox="0 0 2031.2 1874.4" style="enable-background:new 0 0 2031.2 1874.4;" xml:space="preserve">
<g>
	<polygon points="800.8,707.7 742.3,873.9 859.3,873.9 859.3,873.9 	"/>
	<path d="M1015.6,0L1015.6,0C454.7,0,0,358.5,0,800.8c0,285.9,190.1,536.8,476.1,678.5c-15.6,53.7-100,345.2-103.3,368.1
		c0,0-2,17.2,9.1,23.8c11.1,6.6,24.2,1.5,24.2,1.5c32-4.5,370.5-242.3,429.1-283.6c58.5,8.3,118.8,12.6,180.4,12.6
		c560.9,0,1015.6-358.5,1015.6-800.8C2031.2,358.5,1576.5,0,1015.6,0z M512.7,1024.4c0,30.9-26.3,56-58.6,56s-58.6-25.1-58.6-56
		V676.3h-91.4c-31.7,0-57.5-25.7-57.5-57.4s25.8-57.4,57.5-57.4h300c31.7,0,57.5,25.7,57.5,57.4s-25.8,57.4-57.5,57.4h-91.4V1024.4z
		 M1005.1,1071.5c-11.7,5.3-24.4,8.1-37.2,8.1v0c-24.4,0-43.1-9.9-48.8-25.9l-29-76l-178.7,0l-29,76c-5.6,15.9-24.3,25.8-48.7,25.8
		c-12.9,0-25.6-2.7-37.2-8.1c-16.2-7.5-31.7-27.9-13.9-83.2l140.2-368.9c9.9-28.1,39.9-57,78-57.8c38.3,0.9,68.3,29.8,78.2,57.9
		L1019,988.2C1036.8,1043.6,1021.3,1064.1,1005.1,1071.5z M1301.3,1071.8h-188c-31,0-56.2-24.1-56.2-53.7V620.1
		c0-32.3,26.8-58.6,59.8-58.6s59.8,26.3,59.8,58.6v344.2h124.5c31,0,56.2,24.1,56.2,53.7S1332.2,1071.8,1301.3,1071.8z M1760,1027.7
		c-2.1,15.4-10.3,29.3-22.7,38.6c-10.1,7.7-22.5,11.9-35.2,11.8c-18.4,0.1-35.8-8.6-46.8-23.3l-137.4-182.1l-20.3,20.3v127.8
		c0,32.4-26.3,58.6-58.6,58.6v0c-32.3,0-58.6-26.3-58.6-58.6V620.1c0-32.3,26.3-58.6,58.6-58.6s58.6,26.3,58.6,58.6v125.9
		l163.5-163.5c8.4-8.4,20-13,32.5-13c14.6,0,29.3,6.3,40.3,17.3c10.3,10.3,16.4,23.4,17.2,37.1c0.8,13.8-3.8,26.5-12.9,35.7
		l-133.5,133.5l144.2,191.1C1758.1,996.6,1762.2,1012.3,1760,1027.7z"/>
</g>
</svg>
