<?xml version="1.0" encoding="utf-8"?>
<!-- Generator: Adobe Illustrator 21.1.0, SVG Export Plug-In . SVG Version: 6.00 Build 0)  -->
<svg version="1.1" id="Button" xmlns="http://www.w3.org/2000/svg" xmlns:xlink="http://www.w3.org/1999/xlink" x="0px" y="0px"
	 viewBox="0 0 32 32" style="enable-background:new 0 0 32 32;" xml:space="preserve">
<style type="text/css">
	.st0{fill:#FFFFFF;}
	.st1{fill:#DADADA;}
</style>
<g id="Button">
	<path class="st0" d="M16.2,1h-0.4C24.2,1,31,7.7,31,16l0,0l0,0c0,8.3-6.8,15-15.2,15h0.4C7.8,31,1,24.3,1,16l0,0
		C1,7.7,7.8,1,16.2,1L16.2,1z"/>
	<path class="st1" d="M16.2,32l-0.4,0C7.1,31.8,0,24.7,0,16S7.1,0.2,15.8,0v0l0.4,0C24.9,0.2,32,7.3,32,16S24.9,31.8,16.2,32
		L16.2,32z M16,2C8.3,2.1,2,8.3,2,16c0,7.7,6.2,13.9,14,14c7.7-0.1,14-6.3,14-14C30,8.3,23.7,2.1,16,2z"/>
</g>
<g id="Plus_Icon">
	<path class="st1" d="M22.1,15.3h-4.8c-0.2,0-0.3-0.2-0.4-0.4V10c0-0.2-0.1-0.3-0.3-0.4l0,0H16c-0.2,0-0.3,0.2-0.4,0.4v4.9
		c0,0.2-0.2,0.3-0.4,0.4h-4.7c-0.2,0-0.3,0.2-0.4,0.4v0.7c0,0.2,0.2,0.4,0.4,0.4h4.7c0.2,0,0.3,0.2,0.4,0.4v4.6
		c0,0.2,0.2,0.3,0.4,0.4h0.7c0.2,0,0.3-0.2,0.4-0.3l0,0v-4.6c0-0.2,0.2-0.3,0.4-0.4h4.7c0.2,0,0.3-0.2,0.4-0.3l0,0v-0.7
		C22.5,15.4,22.4,15.3,22.1,15.3L22.1,15.3L22.1,15.3L22.1,15.3z"/>
</g>
</svg>
