<?xml version="1.0" encoding="utf-8"?>
<!-- Generator: Adobe Illustrator 21.1.0, SVG Export Plug-In . SVG Version: 6.00 Build 0)  -->
<svg version="1.1" id="Layer_1" xmlns="http://www.w3.org/2000/svg" xmlns:xlink="http://www.w3.org/1999/xlink" x="0px" y="0px"
	 viewBox="0 0 32 32" style="enable-background:new 0 0 32 32;" xml:space="preserve">
<style type="text/css">
	.st0{fill:#DADADA;}
</style>
<path id="Comment_Icon" class="st0" d="M16.1,0C7.2,0,0,6.1,0,13.5c0,3.6,1.6,6.9,4.5,9.3c0.2,0.2,0.3,0.4,0.3,0.6v7.4
	c0,0.5,0.1,1,0.7,1.1c0.2,0.1,0.6,0,0.8-0.1l6.2-4.9c0.2-0.2,0.5-0.2,0.7-0.2c0.9,0.1,1.9,0.2,2.9,0.2C24.9,27,32,20.9,32,13.4
	S24.8,0,16.1,0L16.1,0L16.1,0z M16.1,23.4c-6.8,0-12.3-4.4-12.3-9.9s5.5-10,12.3-10S28.3,8,28.3,13.4S22.7,23.4,16.1,23.4L16.1,23.4
	z M12.4,13.8c0,1-0.9,1.7-1.9,1.7s-1.8-0.9-1.8-1.8s0.8-1.7,1.8-1.7C11.6,11.9,12.4,12.8,12.4,13.8L12.4,13.8L12.4,13.8z M18,13.8
	c0,1-0.9,1.7-1.9,1.7s-1.8-0.9-1.8-1.8s0.8-1.7,1.8-1.7C17.2,12,18,12.8,18,13.8L18,13.8z M23.6,13.8c0,1-0.9,1.7-1.9,1.7
	c-1,0-1.8-0.9-1.8-1.8s0.8-1.7,1.8-1.7C22.8,12,23.6,12.8,23.6,13.8L23.6,13.8z"/>
</svg>
