<?xml version="1.0" encoding="utf-8"?>
<!-- Generator: Adobe Illustrator 21.1.0, SVG Export Plug-In . SVG Version: 6.00 Build 0)  -->
<svg version="1.1" id="Capa_1" xmlns="http://www.w3.org/2000/svg" xmlns:xlink="http://www.w3.org/1999/xlink" x="0px" y="0px"
	 viewBox="0 0 32 27" style="enable-background:new 0 0 32 27;" xml:space="preserve">
<style type="text/css">
	.st0{fill:#646464;}
</style>
<g>
	<g>
		<path class="st0" d="M14.7,13.3c-0.5-1-0.7-2.1-0.7-3.3s0.3-2.5,0.7-3.7c0.5-1.2,1.1-2.3,1.9-3.2c0.8-0.9,1.8-1.7,2.9-2.3
			C20.6,0.3,21.8,0,23,0s2.4,0.3,3.5,0.7c1.1,0.5,2,1.1,2.9,1.9c0.8,0.8,1.5,1.8,1.9,2.9C31.7,6.6,32,7.8,32,9s-0.3,2.4-0.7,3.5
			c-0.5,1.1-1.1,2-1.9,2.9C28.5,16.2,17.1,26.5,16,27l0,0l0,0C14.9,26.5,3.5,16.2,2.6,15.4s-1.5-1.8-1.9-2.9C0.3,11.4,0,10.2,0,9
			s0.3-2.4,0.7-3.5c0.5-1.1,1.1-2,1.9-2.9c0.8-0.8,1.8-1.5,2.9-1.9C6.6,0.3,7.8,0,9,0s2.4,0.3,3.5,0.9c1.1,0.5,2,1.3,2.9,2.3
			c0.8,0.9,1.5,2,1.9,3.2C17.7,7.5,18,8.8,18,10s-0.3,2.4-0.7,3.3c-0.5,1-1.1,1.8-1.9,2.5"/>
	</g>
</g>
</svg>
