<?xml version="1.0" encoding="utf-8"?>
<!-- Generator: Adobe Illustrator 22.0.0, SVG Export Plug-In . SVG Version: 6.00 Build 0)  -->
<svg version="1.1" id="Layer_1" xmlns="http://www.w3.org/2000/svg" xmlns:xlink="http://www.w3.org/1999/xlink"
	width="78" viewBox="0 0 78 25" style="enable-background:new 0 0 78 25;" xml:space="preserve">
<style type="text/css">
	.st0{enable-background:new    ;}
	.st1{fill:#0099FF;}
</style>
<g id="_.header_logo_Beagle" class="st0">
	<path class="st1" d="M0.6,1.7h6c2.3,0,4.1,0.3,5.2,1s1.7,1.8,1.7,3.2c0,1-0.2,1.8-0.7,2.5s-1.1,1.1-1.9,1.3v0.1
		c1.1,0.3,1.8,0.8,2.3,1.4s0.7,1.5,0.7,2.6c0,1.6-0.6,2.8-1.8,3.7s-2.8,1.3-4.8,1.3H0.6V1.7z M5.2,8.3h1.4c0.7,0,1.2-0.1,1.5-0.4
		c0.4-0.3,0.5-0.7,0.5-1.2c0-1-0.7-1.4-2.2-1.4H5.2V8.3z M5.2,11.7v3.6h1.6c1.4,0,2.2-0.6,2.2-1.8c0-0.6-0.2-1-0.6-1.3
		s-0.9-0.5-1.7-0.5H5.2z"/>
	<path class="st1" d="M22,19.1c-2.2,0-3.9-0.6-5.2-1.8s-1.8-2.8-1.8-5c0-2.2,0.6-4,1.7-5.2s2.8-1.8,4.9-1.8c2,0,3.5,0.5,4.6,1.6
		s1.6,2.5,1.6,4.5v2h-8.2c0,0.7,0.3,1.3,0.8,1.7s1.2,0.6,2.1,0.6c0.8,0,1.5-0.1,2.2-0.2s1.4-0.4,2.2-0.8v3.3
		c-0.7,0.4-1.5,0.6-2.2,0.8S23.1,19.1,22,19.1z M21.7,8.5c-0.5,0-1,0.2-1.4,0.5s-0.6,0.9-0.6,1.6h3.9c0-0.6-0.2-1.2-0.5-1.5
		S22.3,8.5,21.7,8.5z"/>
	<path class="st1" d="M38.2,18.8l-0.9-1.8h-0.1c-0.6,0.8-1.2,1.3-1.9,1.6s-1.5,0.4-2.5,0.4c-1.3,0-2.2-0.4-3-1.1s-1.1-1.8-1.1-3.2
		c0-1.4,0.5-2.5,1.5-3.2s2.4-1.1,4.3-1.2l2.2-0.1v-0.2c0-1.1-0.5-1.6-1.6-1.6c-1,0-2.2,0.3-3.7,1l-1.3-3c1.5-0.8,3.5-1.2,5.9-1.2
		c1.7,0,3,0.4,4,1.3s1.4,2,1.4,3.5v8.7H38.2z M34.8,15.8c0.6,0,1-0.2,1.4-0.5s0.6-0.8,0.6-1.4v-1l-1.1,0c-1.5,0.1-2.3,0.6-2.3,1.7
		C33.5,15.4,34,15.8,34.8,15.8z"/>
	<path class="st1" d="M56.2,5.6v2.2l-1.8,0.7c0.2,0.5,0.4,1,0.4,1.6c0,1.4-0.5,2.5-1.5,3.3c-1,0.8-2.5,1.2-4.5,1.2
		c-0.5,0-0.9,0-1.2-0.1c-0.1,0.2-0.2,0.4-0.2,0.6c0,0.2,0.2,0.4,0.6,0.5s0.8,0.2,1.4,0.2h2.2c3,0,4.5,1.3,4.5,3.8
		c0,1.6-0.7,2.9-2.1,3.8s-3.3,1.3-5.8,1.3c-1.9,0-3.3-0.3-4.4-0.9s-1.5-1.5-1.5-2.7c0-1.6,1-2.6,3-3.1c-0.4-0.2-0.8-0.4-1.1-0.8
		s-0.5-0.8-0.5-1.1c0-0.4,0.1-0.8,0.3-1.1s0.7-0.7,1.4-1.1c-0.7-0.3-1.2-0.8-1.6-1.4s-0.6-1.4-0.6-2.4c0-1.4,0.5-2.6,1.5-3.4
		s2.4-1.2,4.2-1.2c0.2,0,0.7,0,1.3,0.1s1,0.1,1.3,0.2H56.2z M46.2,20.5c0,0.4,0.2,0.7,0.6,0.9s0.9,0.3,1.6,0.3c1.1,0,2-0.1,2.7-0.4
		s1-0.6,1-1.1c0-0.4-0.2-0.6-0.6-0.7s-1-0.2-1.7-0.2h-1.8c-0.5,0-0.9,0.1-1.2,0.3S46.2,20.2,46.2,20.5z M47.6,9.9c0,1.4,0.5,2,1.4,2
		c0.4,0,0.8-0.2,1-0.5s0.4-0.8,0.4-1.5c0-1.4-0.5-2.1-1.4-2.1C48.1,7.9,47.6,8.6,47.6,9.9z"/>
	<path class="st1" d="M61.9,18.8h-4.6V0.6h4.6V18.8z"/>
	<path class="st1" d="M70.6,19.1c-2.2,0-3.9-0.6-5.2-1.8s-1.8-2.8-1.8-5c0-2.2,0.6-4,1.7-5.2s2.8-1.8,4.9-1.8c2,0,3.5,0.5,4.6,1.6
		s1.6,2.5,1.6,4.5v2h-8.2c0,0.7,0.3,1.3,0.8,1.7s1.2,0.6,2.1,0.6c0.8,0,1.5-0.1,2.2-0.2s1.4-0.4,2.2-0.8v3.3
		c-0.7,0.4-1.5,0.6-2.2,0.8S71.7,19.1,70.6,19.1z M70.4,8.5c-0.5,0-1,0.2-1.4,0.5s-0.6,0.9-0.6,1.6h3.9c0-0.6-0.2-1.2-0.5-1.5
		S71,8.5,70.4,8.5z"/>
</g>
</svg>
